<svg width="127" height="181" viewBox="0 0 127 181" fill="none" xmlns="http://www.w3.org/2000/svg">
<mask id="mask0_74_198" style="mask-type:alpha" maskUnits="userSpaceOnUse" x="0" y="0" width="127" height="181">
<rect width="127" height="181" fill="#D9D9D9"/>
</mask>
<g mask="url(#mask0_74_198)">
<path d="M77.976 102.65C90.7458 111.264 100.54 121.637 106.062 131.423C111.601 141.239 112.77 150.316 108.61 156.484C104.449 162.653 95.5956 164.969 84.4196 163.51C73.2768 162.056 59.9902 156.861 47.2203 148.247C34.4505 139.634 24.6563 129.261 19.1339 119.474C13.5951 109.659 12.4259 100.582 16.5866 94.4137C20.7473 88.2452 29.6007 85.9293 40.7767 87.3877C51.9195 88.8418 65.2061 94.037 77.976 102.65Z" stroke="#44FFA1"/>
<path d="M89.976 84.6504C102.746 93.2637 112.54 103.637 118.062 113.423C123.601 123.239 124.77 132.316 120.61 138.484C116.449 144.653 107.596 146.969 96.4196 145.51C85.2768 144.056 71.9902 138.861 59.2203 130.247C46.4505 121.634 36.6563 111.261 31.1339 101.474C25.5951 91.6586 24.4259 82.5822 28.5866 76.4137C32.7473 70.2452 41.6007 67.9293 52.7767 69.3877C63.9195 70.8418 77.2061 76.037 89.976 84.6504Z" stroke="#44FFA1"/>
<path opacity="0.75" d="M100.976 67.6504C113.746 76.2637 123.54 86.6367 129.062 96.4234C134.601 106.239 135.77 115.316 131.61 121.484C127.449 127.653 118.596 129.969 107.42 128.51C96.2768 127.056 82.9902 121.861 70.2203 113.247C57.4505 104.634 47.6563 94.2611 42.1339 84.4744C36.5951 74.6586 35.4259 65.5822 39.5866 59.4137C43.7473 53.2452 52.6007 50.9293 63.7767 52.3877C74.9195 53.8418 88.2061 59.037 100.976 67.6504Z" stroke="#44FFA1"/>
<path opacity="0.5" d="M112.976 49.6504C125.746 58.2637 135.54 68.6367 141.062 78.4234C146.601 88.2393 147.77 97.3156 143.61 103.484C139.449 109.653 130.596 111.969 119.42 110.51C108.277 109.056 94.9902 103.861 82.2203 95.2475C69.4505 86.6341 59.6563 76.2611 54.1339 66.4744C48.5951 56.6586 47.4259 47.5822 51.5866 41.4137C55.7473 35.2452 64.6007 32.9293 75.7767 34.3877C86.9195 35.8418 100.206 41.037 112.976 49.6504Z" stroke="#44FFA1"/>
<path opacity="0.25" d="M125.976 31.6504C138.746 40.2637 148.54 50.6367 154.062 60.4234C159.601 70.2393 160.77 79.3156 156.61 85.4841C152.449 91.6526 143.596 93.9686 132.42 92.5101C121.277 91.056 107.99 85.8608 95.2203 77.2475C82.4505 68.6341 72.6563 58.2611 67.1339 48.4744C61.5951 38.6586 60.4259 29.5822 64.5866 23.4137C68.7473 17.2452 77.6007 14.9293 88.7767 16.3877C99.9195 17.8418 113.206 23.037 125.976 31.6504Z" stroke="#44FFA1"/>
</g>
</svg>
