<svg width="79" height="181" viewBox="0 0 79 181" fill="none" xmlns="http://www.w3.org/2000/svg">
<mask id="mask0_69_159" style="mask-type:alpha" maskUnits="userSpaceOnUse" x="0" y="0" width="79" height="181">
<rect width="79" height="181" fill="#D9D9D9"/>
</mask>
<g mask="url(#mask0_69_159)">
<path d="M77.976 102.65C90.7458 111.264 100.54 121.637 106.062 131.423C111.601 141.239 112.77 150.316 108.61 156.484C104.449 162.653 95.5956 164.969 84.4196 163.51C73.2768 162.056 59.9902 156.861 47.2203 148.247C34.4505 139.634 24.6563 129.261 19.1339 119.474C13.5951 109.659 12.4259 100.582 16.5866 94.4137C20.7473 88.2452 29.6007 85.9293 40.7767 87.3877C51.9195 88.8418 65.2061 94.037 77.976 102.65Z" stroke="#44FFA1"/>
<path d="M89.9761 84.6504C102.746 93.2637 112.54 103.637 118.062 113.423C123.601 123.239 124.771 132.316 120.61 138.484C116.449 144.653 107.596 146.969 96.4197 145.51C85.2769 144.056 71.9903 138.861 59.2205 130.247C46.4507 121.634 36.6565 111.261 31.1341 101.474C25.5952 91.6586 24.426 82.5822 28.5867 76.4137C32.7474 70.2452 41.6008 67.9293 52.7768 69.3877C63.9196 70.8418 77.2063 76.037 89.9761 84.6504Z" stroke="#44FFA1"/>
<path opacity="0.75" d="M100.976 67.6505C113.746 76.2639 123.54 86.6368 129.062 96.4236C134.601 106.239 135.771 115.316 131.61 121.484C127.449 127.653 118.596 129.969 107.42 128.51C96.2769 127.056 82.9903 121.861 70.2205 113.248C57.4507 104.634 47.6565 94.2612 42.1341 84.4745C36.5952 74.6587 35.426 65.5823 39.5867 59.4138C43.7474 53.2453 52.6008 50.9294 63.7768 52.3878C74.9196 53.8419 88.2063 59.0372 100.976 67.6505Z" stroke="#44FFA1"/>
<path opacity="0.5" d="M112.976 49.6504C125.746 58.2637 135.54 68.6367 141.062 78.4234C146.601 88.2393 147.771 97.3156 143.61 103.484C139.449 109.653 130.596 111.969 119.42 110.51C108.277 109.056 94.9903 103.861 82.2205 95.2475C69.4507 86.6341 59.6565 76.2611 54.1341 66.4744C48.5952 56.6586 47.426 47.5822 51.5867 41.4137C55.7474 35.2452 64.6008 32.9293 75.7768 34.3877C86.9196 35.8418 100.206 41.037 112.976 49.6504Z" stroke="#44FFA1"/>
<path opacity="0.25" d="M125.976 31.6504C138.746 40.2637 148.54 50.6367 154.062 60.4234C159.601 70.2393 160.771 79.3156 156.61 85.4841C152.449 91.6526 143.596 93.9686 132.42 92.5101C121.277 91.056 107.99 85.8608 95.2205 77.2475C82.4507 68.6341 72.6565 58.2611 67.1341 48.4744C61.5952 38.6586 60.426 29.5822 64.5867 23.4137C68.7474 17.2452 77.6008 14.9293 88.7768 16.3877C99.9196 17.8418 113.206 23.037 125.976 31.6504Z" stroke="#44FFA1"/>
</g>
</svg>
